<svg xmlns="http://www.w3.org/2000/svg" viewBox="0 0 435.55 434.1"><defs><style>.cls-1{fill:#dd8941;}.cls-2{fill:#d87830;}.cls-3{fill:#f99f5d;}.cls-4{fill:#db6c19;}.cls-5{fill:#d66c25;}.cls-6{fill:#e7b95c;}.cls-7{fill:#e2ab49;}.cls-8{fill:#f9ce82;}.cls-9{fill:#e2a02d;}.cls-10{fill:#dd9e37;}.cls-11{fill:#955075;}.cls-12{fill:#7c4263;}.cls-13{fill:#c46c9e;}.cls-14{fill:#5e324b;}.cls-15{fill:#633552;}.cls-16{fill:#e489a6;}.cls-17{fill:#fcb1cc;}.cls-18{fill:#ba728c;}.cls-19{fill:#a3667c;}.cls-20{fill:#33494a;}.cls-21{fill:#d4675a;}.cls-22{fill:#d1544a;}.cls-23{fill:#cc423b;}.cls-24{fill:#ce3b30;}.cls-25{fill:#e18f7b;}.cls-26{fill:#e07d69;}.cls-27{fill:#d8654e;}.cls-28{fill:#fcb5a7;}.cls-29{fill:#db6a58;}.cls-30{fill:#e07f6d;}.cls-31{fill:#db5d4b;}.cls-32{fill:#fc7c72;}</style></defs><g id="レイヤー_2" data-name="レイヤー 2"><g id="women_s_mental_health_concept_illustration" data-name="women&apos;s mental health concept illustration"><path class="cls-1" d="M362.5,36.64S318,31.31,318,77.59c0,48.12,44.53,39.91,44.53,39.91s36.88.61,36.88-40.35S362.5,36.64,362.5,36.64Z"/><path class="cls-2" d="M323.42,85.27c-1.38-8.75-.13-19.63-.13-19.63-3.37-2.12-4.12,4.5-2.87,18s3.62,14.25,5,13.38S324.79,94,323.42,85.27Z"/><path class="cls-2" d="M339.42,107.39a29,29,0,0,1-11.88-9.87c-4.25-.38-.5,7.62,9.38,12.75s13,3.25,13.12,1.12S347.29,110.89,339.42,107.39Z"/><path class="cls-2" d="M336.67,97.77c.87-2.25-2.88-1.75-6.38-7.88a33.34,33.34,0,0,1-3.87-13.12c-3.25-2.25-3,5.87.62,14.87S335.79,100,336.67,97.77Z"/><path class="cls-3" d="M388.29,49.14c-4.5-5-8.62-7.5-8.12-4.87a24.54,24.54,0,0,1,8.25,7.87c3.62,5.5,2.87,8.25,4.62,7.63S392.79,54.14,388.29,49.14Z"/><path class="cls-3" d="M396.67,68.89c-.5-4.87-1.63-9.12-3.38-7,0,0,.63,3.25,1,6.63s-.37,6.37,1,6.5S397.17,73.77,396.67,68.89Z"/><path class="cls-4" d="M344.9,116.82c-.95-.26-.89.37-.89.37s-.26.34.62.59.84-.18.84-.18S345.85,117.09,344.9,116.82Z"/><path class="cls-4" d="M343.4,114.58s-.42-.09-.25.82.52.67.52.67.63.12.45-.85S343.4,114.58,343.4,114.58Z"/><path class="cls-4" d="M346.92,114.71s-.05-.64-.93-.2-.43.86-.43.86,0,.43.86,0S346.92,114.71,346.92,114.71Z"/><path class="cls-4" d="M348.58,115.89s-.26-.34-.71.47,0,.85,0,.85.41.49.89-.37S348.58,115.89,348.58,115.89Z"/><path class="cls-4" d="M348.66,112.82c-.36-.91-.83-.49-.83-.49s-.42,0-.09.85.64.56.64.56S349,113.74,348.66,112.82Z"/><path class="cls-4" d="M384.88,54.47c-.95-.26-.89.37-.89.37s-.27.33.62.59.84-.18.84-.18S385.83,54.74,384.88,54.47Z"/><path class="cls-4" d="M383.38,52.23s-.42-.09-.26.82.53.67.53.67.62.12.45-.85S383.38,52.23,383.38,52.23Z"/><path class="cls-4" d="M386.9,52.35s0-.63-.93-.19-.43.86-.43.86,0,.42.86,0S386.9,52.35,386.9,52.35Z"/><path class="cls-4" d="M388.56,53.54s-.26-.34-.72.47,0,.84,0,.84.41.5.89-.36S388.56,53.54,388.56,53.54Z"/><path class="cls-4" d="M388.64,50.47c-.36-.92-.83-.49-.83-.49s-.42,0-.09.85.64.56.64.56S389,51.39,388.64,50.47Z"/><path class="cls-4" d="M324,70.7c-.94-.26-.88.36-.88.36s-.27.34.62.59.84-.17.84-.17S325,71,324,70.7Z"/><path class="cls-4" d="M322.52,68.46s-.41-.09-.25.81.53.68.53.68.62.12.45-.85S322.52,68.46,322.52,68.46Z"/><path class="cls-4" d="M326.05,68.58s-.05-.64-.94-.2-.42.87-.42.87,0,.42.85,0S326.05,68.58,326.05,68.58Z"/><path class="cls-4" d="M327.71,69.77s-.27-.34-.72.46,0,.85,0,.85.4.5.89-.36S327.71,69.77,327.71,69.77Z"/><path class="cls-4" d="M327.79,66.7c-.36-.92-.83-.49-.83-.49s-.43,0-.09.84.64.57.64.57S328.15,67.62,327.79,66.7Z"/><path class="cls-5" d="M318.08,73.52s-2,7.33,1.5,19.92,7.67,15.5,8.34,14.5-4.25-3.09-7.67-13.67A54,54,0,0,1,318.08,73.52Z"/><path class="cls-5" d="M400,77.14a52.08,52.08,0,0,0-3.75-18.25,45.34,45.34,0,0,1,3.25,19.5c-.62,11-2.75,13.75-1.25,14S400.42,88,400,77.14Z"/><path class="cls-1" d="M358.17.27c-1.54-1.23-1.94,1.89-2,6.58h1.78C358,3.07,358.17.27,358.17.27Z"/><path class="cls-1" d="M357.71,15.35c0-1.89.07-3.82.12-5.66h-1.7c0,1.8,0,3.73,0,5.66Z"/><path class="cls-1" d="M357.67,18.19h-1.52c-.19,8.36-1.85,15.09.52,15.33s1-6.25,1-14Z"/><path class="cls-1" d="M358.17,157.26c-1.54,1.23-1.94-1.9-2-6.58h1.78C358,154.45,358.17,157.26,358.17,157.26Z"/><path class="cls-1" d="M357.71,142.18c0,1.89.07,3.82.12,5.65h-1.7c0-1.8,0-3.72,0-5.65Z"/><path class="cls-1" d="M357.67,139.33h-1.52c-.19-8.35-1.85-15.09.52-15.32s1,6.25,1,14Z"/><path class="cls-1" d="M435.28,80.14c1.23-1.54-1.89-1.94-6.57-2V79.9C432.48,80,435.28,80.14,435.28,80.14Z"/><path class="cls-1" d="M420.21,79.68c1.88,0,3.81.08,5.65.13V78.1l-5.65,0Z"/><path class="cls-1" d="M417.36,79.65V78.12c-8.36-.18-15.09-1.84-15.33.52s6.25,1,14,1Z"/><path class="cls-1" d="M278.29,80.14c-1.23-1.54,1.9-1.94,6.58-2V79.9C281.1,80,278.29,80.14,278.29,80.14Z"/><path class="cls-1" d="M293.37,79.68c-1.88,0-3.82.08-5.65.13V78.1l5.65,0Z"/><path class="cls-1" d="M296.22,79.65V78.12c8.35-.18,15.09-1.84,15.32.52s-6.25,1-14,1Z"/><path class="cls-1" d="M407.15,139.27c2-.07.24-2.71-2.74-6.31l-1.35,1.15C405.42,137.06,407.15,139.27,407.15,139.27Z"/><path class="cls-1" d="M397.69,127.52c1.2,1.45,2.42,2.94,3.58,4.37l1.3-1.11-3.71-4.27Z"/><path class="cls-1" d="M395.86,125.33l1.16-1c-5.3-6.46-8.42-12.66-10.37-11.3s3.31,5.4,8.35,11.28Z"/><path class="cls-1" d="M305,20.06c.37-1.94,2.7.17,5.81,3.67l-1.35,1.16C306.92,22.11,305,20.06,305,20.06Z"/><path class="cls-1" d="M315.16,31.21c-1.25-1.42-2.54-2.85-3.78-4.21l1.3-1.11c1.17,1.36,2.4,2.84,3.65,4.31Z"/><path class="cls-1" d="M317,33.35l1.15-1c5.58,6.23,11.23,10.26,9.58,12s-4.82-4.1-9.87-10Z"/><path class="cls-1" d="M409.32,17.16c2,.06.24,2.7-2.75,6.3l-1.35-1.15C407.58,19.36,409.32,17.16,409.32,17.16Z"/><path class="cls-1" d="M399.86,28.9c1.2-1.45,2.42-2.94,3.58-4.37l1.29,1.11L401,29.91Z"/><path class="cls-1" d="M398,31.09l1.16,1c-5.3,6.46-8.42,12.66-10.37,11.3s3.31-5.4,8.35-11.28Z"/><path class="cls-1" d="M307.17,136.36c.36,1.94,2.7-.17,5.81-3.67l-1.35-1.16C309.08,134.31,307.17,136.36,307.17,136.36Z"/><path class="cls-1" d="M317.32,125.21c-1.24,1.42-2.54,2.85-3.77,4.21l1.3,1.12,3.65-4.32Z"/><path class="cls-1" d="M319.2,123.07l1.16,1c5.58-6.23,11.22-10.26,9.58-12s-4.83,4.1-9.87,10Z"/><path class="cls-1" d="M430.7,45c1.74.92-.95,2.54-5.21,4.5l-.71-1.63C428.18,46.25,430.7,45,430.7,45Z"/><path class="cls-1" d="M417.08,51.5l5.13-2.39.68,1.56-5.19,2.24Z"/><path class="cls-1" d="M414.49,52.67l.61,1.4c-7.57,3.53-13.07,7.76-14.24,5.69s5.32-3.43,12.42-6.55Z"/><path class="cls-1" d="M287,108.14c-.51,1.9,2.52,1,6.84-.79l-.72-1.63C289.58,107.12,287,108.14,287,108.14Z"/><path class="cls-1" d="M301,102.5c-1.74.73-3.52,1.46-5.23,2.15l.69,1.57,5.16-2.31Z"/><path class="cls-1" d="M303.57,101.38l.62,1.4c7.72-3.19,14.55-4.37,13.82-6.64s-6.13,1.6-13.22,4.72Z"/><path class="cls-1" d="M430.7,109.2c1.74-.91-.95-2.53-5.21-4.49l-.71,1.63C428.18,108,430.7,109.2,430.7,109.2Z"/><path class="cls-1" d="M417.08,102.72c1.71.79,3.46,1.6,5.13,2.39l.68-1.56-5.19-2.24Z"/><path class="cls-1" d="M414.49,101.55l.61-1.4c-7.57-3.53-13.07-7.76-14.24-5.69s5.32,3.43,12.42,6.55Z"/><path class="cls-1" d="M287,46.08c-.51-1.91,2.52-1,6.84.79l-.72,1.63C289.58,47.09,287,46.08,287,46.08Z"/><path class="cls-1" d="M301,51.72c-1.74-.73-3.52-1.47-5.23-2.16l.69-1.56,5.16,2.31Z"/><path class="cls-1" d="M303.57,52.84l.62-1.4c7.72,3.19,14.55,4.37,13.82,6.64s-6.13-1.6-13.22-4.72Z"/><path class="cls-6" d="M215.44,105.48c-2.16-7.17-9.3-3.23-9.3-3.23s17.8-10.6,12.7-17.82-15.1,1.13-15.1,1.13S219,71.8,212.14,65.5s-16.35,6.93-16.35,6.93,10.31-23.29,2.1-25.29-12.37,16.74-12.37,16.74.15-7-6.78-6.57-7.64,23.25-7.64,23.25-4.61-16.2-13-9.13S165.62,139,165.62,139,217.6,112.65,215.44,105.48Z"/><path class="cls-7" d="M160.56,81.78c-1.91-1-1.58,2.12-1,6.62s0,7.59,1.77,6.85.14-3.76-.24-7.55S160.56,81.78,160.56,81.78Z"/><path class="cls-7" d="M166.77,102c1.49-.57.11-3.24-.37-6.28s-1.1-9-1.1-9c-2.23-1.23-1.45,2.94-.77,8.27S165.28,102.54,166.77,102Z"/><path class="cls-7" d="M163.46,105.37c-2.26-.71-1.74,2.21-.2,9.77s1.63,8.12,3,7.39-.26-2-1-6.87S163.46,105.37,163.46,105.37Z"/><path class="cls-7" d="M176.24,88.17c1.66.14.92-4.16,1.53-8.16s1.34-8,1.34-8c-2.08-1.31-1.89,3.07-2.92,8S174.58,88,176.24,88.17Z"/><path class="cls-7" d="M184.35,66.22c-1.41-1.75-2.76,2.93-3.67,7.89s-2.32,8.18-.81,8.39,1.08-3.85,1.79-6.9S184.35,66.22,184.35,66.22Z"/><path class="cls-7" d="M180.32,96c-2.71,8.58-3.17,9.61-2.22,9.91s2.06-4.85,3.46-8.47,3.93-11.61,3.93-11.61C183.22,84.74,183,87.43,180.32,96Z"/><path class="cls-7" d="M201,80.39c3.08-3.09,5.89-5.35,4.33-6.63S202.5,76,199.74,79,195,84,195,84C195.34,85.82,197.91,83.48,201,80.39Z"/><path class="cls-7" d="M199.69,86.14c3.51-3.21,6.48-5.55,5.15-6.76s-2.07,1.18-5.11,4.15S193,90.2,193,90.2C193.19,92.61,196.18,89.36,199.69,86.14Z"/><path class="cls-7" d="M202.58,99c3.71-2.63,6.53-4.49,5.6-5.71s-2.3,1.5-4.93,3.17-8,5.46-8,5.46C195,104.72,198.87,101.61,202.58,99Z"/><path class="cls-7" d="M205.18,111.08c-.85-1.45-2.59,1.15-7.69,3.6s-9.17,5-9.17,5c-.36,2.38,4.62-.51,9.55-3.27S206,112.53,205.18,111.08Z"/><path class="cls-7" d="M195.2,112c-1-1.49-3.42,1.68-7.53,3.91a26.11,26.11,0,0,0-5.87,4c-.35,2.77.29.75,5-1.82S196.17,113.48,195.2,112Z"/><path class="cls-8" d="M197.1,64.88c-1-1.28-1.52.13-2.8,4.18s-1.79,5.11-1,5.29,1.14-2.53,1.95-4.81S197.1,64.88,197.1,64.88Z"/><path class="cls-8" d="M214.51,92.22c-.73-.75-1.67,1.14-3.47,2.67s-4,3.28-4,3.28c-.5,2.11,1.87.15,4.58-2S215.23,93,214.51,92.22Z"/><path class="cls-9" d="M160.9,83.93c-.53-.35-.61,0-.61,0s-.23.15.26.48.55.05.55.05S161.43,84.28,160.9,83.93Z"/><path class="cls-9" d="M160.41,82.26s-.24-.13-.31.46.19.51.19.51.36.19.44-.44S160.41,82.26,160.41,82.26Z"/><path class="cls-9" d="M162.55,83s.09-.4-.54-.3-.42.45-.42.45-.07.26.52.18S162.55,83,162.55,83Z"/><path class="cls-9" d="M163.33,84.07s-.09-.26-.52.15-.19.51-.19.51.16.38.62,0S163.33,84.07,163.33,84.07Z"/><path class="cls-9" d="M164,82.2c0-.63-.41-.46-.41-.46s-.26-.08-.22.51.28.46.28.46S164,82.84,164,82.2Z"/><path class="cls-9" d="M179.31,105.68c-.53-.35-.62,0-.62,0s-.23.16.27.48.55.06.55.06S179.84,106,179.31,105.68Z"/><path class="cls-9" d="M178.82,104s-.24-.13-.31.46.19.51.19.51.36.19.44-.43S178.82,104,178.82,104Z"/><path class="cls-9" d="M181,104.77s.09-.4-.54-.3-.42.45-.42.45-.07.26.51.18S181,104.77,181,104.77Z"/><path class="cls-9" d="M181.74,105.82s-.09-.26-.53.15-.18.51-.18.51.16.38.61,0S181.74,105.82,181.74,105.82Z"/><path class="cls-9" d="M182.39,104c0-.63-.42-.45-.42-.45s-.26-.09-.22.5.29.47.29.47S182.43,104.59,182.39,104Z"/><path class="cls-9" d="M205.77,76.6c-.53-.34-.61.06-.61.06s-.23.15.26.48.55,0,.55,0S206.3,77,205.77,76.6Z"/><path class="cls-9" d="M205.29,74.94s-.24-.13-.32.45.2.52.2.52.35.19.44-.44S205.29,74.94,205.29,74.94Z"/><path class="cls-9" d="M207.42,75.7s.09-.4-.53-.3-.43.44-.43.44-.07.27.52.18S207.42,75.7,207.42,75.7Z"/><path class="cls-9" d="M208.21,76.75s-.1-.26-.53.14-.18.52-.18.52.15.38.61,0S208.21,76.75,208.21,76.75Z"/><path class="cls-9" d="M208.85,74.88c0-.63-.41-.46-.41-.46s-.26-.09-.22.5.28.47.28.47S208.9,75.52,208.85,74.88Z"/><path class="cls-10" d="M155.72,84.66s-.38,2.59.29,10.15.8,8.55,1.82,8.35-.75-2.34-1.24-8.26S155.72,84.66,155.72,84.66Z"/><path class="cls-10" d="M201.24,52.07a33.94,33.94,0,0,1-.71,6c-.7,3.32-1.4,4.15-1,4.32s.59-.34,1.33-4.34A17.9,17.9,0,0,0,201.24,52.07Z"/><path class="cls-10" d="M219.92,88.93a16.77,16.77,0,0,1-3.4,4.95c-2.57,2.73-5,3.68-4.52,4.35s1.67-.33,4.62-3.66S219.92,88.93,219.92,88.93Z"/><path class="cls-11" d="M89.9,25.42C96.49,25.27,92.44,47,92.44,47s1-4.28,3.28-13.54,2-14.33,8-12.75-2.4,28.44-2.4,28.44,2.73-7.18,5.93-15.74,5.49-10.9,9.54-8-7.59,27.89-7.59,27.89,2.4-3.82,6.3-9.85,6.43-9,11.19-4.8-25.85,53.06-25.85,53.06L75.64,83s5.74-29.27,7.3-39.91S83.31,25.56,89.9,25.42Z"/><path class="cls-12" d="M119.07,54.2s-1.21,2.1-2.82,5-2.34,5.54-3.53,4.76.7-2.14,2.89-6S118.11,51.91,119.07,54.2Z"/><path class="cls-12" d="M119,48.11s-1.6,3.29-3.37,6.27-3.75,8.24-4.9,7.33,1.48-4.11,4-8.28S118,45.83,119,48.11Z"/><path class="cls-12" d="M107.29,69.68s-.31.16-2.51,3.65-2.42,5.38-3.53,4.76.34-2.26,2.62-5.59S106.88,67.31,107.29,69.68Z"/><path class="cls-12" d="M107.87,50.27s-.9,1.94-2.62,6-2,6.85-3.17,6.46.34-3.05,2.37-7.25S106.59,48.14,107.87,50.27Z"/><path class="cls-12" d="M101.61,55.71s-1.84,4.4-2.85,7.49-1.59,6.45-2.62,6,.3-3.32,1.86-7.28S100.65,53.82,101.61,55.71Z"/><path class="cls-12" d="M101.73,33.66s-.77,3.16-2.09,7.6S98.72,48.45,97.3,48s.42-3.68,1.62-7.76S100.3,32.4,101.73,33.66Z"/><path class="cls-12" d="M87.73,54.32c.57-4.55.79-8,2.41-7,0,0-.61,3.48-1.31,7.2S88.55,61,87.25,61,87.16,58.87,87.73,54.32Z"/><path class="cls-12" d="M85.82,52.91s-.37,4.35-.75,7.51.28,8-1.26,7.88-.06-3.44.07-7.87S84.16,52,85.82,52.91Z"/><path class="cls-13" d="M98.91,53.51l-1,3.17c-.47,1.43-.61,3.48-1.41,3.22S96,59,97,56.32,98,52.33,98.91,53.51Z"/><path class="cls-13" d="M85.27,34.92s-.13,1.72-.22,4.14,0,4.3-.77,4.22-.4-1.44-.1-4S84.16,34.3,85.27,34.92Z"/><path class="cls-14" d="M117.6,59.82c.42,0,.31.27.31.27s.07.18-.33.16-.32-.19-.32-.19S117.17,59.8,117.6,59.82Z"/><path class="cls-14" d="M118.52,59.1s.19,0,0,.37-.31.21-.31.21-.28,0-.07-.42S118.52,59.1,118.52,59.1Z"/><path class="cls-14" d="M117.05,58.67s.11-.26.41,0,.06.41.06.41-.07.17-.36-.11S117.05,58.67,117.05,58.67Z"/><path class="cls-14" d="M116.2,58.94s.16-.11.23.29-.1.35-.1.35-.23.15-.32-.27S116.2,58.94,116.2,58.94Z"/><path class="cls-14" d="M116.58,57.66c.28-.34.41-.09.41-.09s.18,0-.08.36-.34.14-.34.14S116.31,58,116.58,57.66Z"/><path class="cls-14" d="M95.29,68.74c.43,0,.32.27.32.27s.07.17-.33.16S95,69,95,69,94.87,68.72,95.29,68.74Z"/><path class="cls-14" d="M96.22,68s.18,0,0,.38-.3.2-.3.2-.28,0-.07-.41S96.22,68,96.22,68Z"/><path class="cls-14" d="M94.75,67.59s.11-.26.41,0,.06.41.06.41-.07.18-.36-.1S94.75,67.59,94.75,67.59Z"/><path class="cls-14" d="M93.9,67.85s.15-.1.23.29-.1.36-.1.36-.24.15-.32-.27S93.9,67.85,93.9,67.85Z"/><path class="cls-14" d="M94.28,66.57c.27-.33.41-.09.41-.09s.18,0-.08.36-.34.15-.34.15S94,66.9,94.28,66.57Z"/><path class="cls-14" d="M86.59,35.89c.43,0,.32.27.32.27s.06.18-.34.16-.32-.18-.32-.18S86.16,35.87,86.59,35.89Z"/><path class="cls-14" d="M87.51,35.17s.19,0,0,.37-.31.21-.31.21-.28,0-.07-.41S87.51,35.17,87.51,35.17Z"/><path class="cls-14" d="M86,34.74s.11-.26.41,0,.06.41.06.41-.07.17-.36-.11S86,34.74,86,34.74Z"/><path class="cls-14" d="M85.19,35s.16-.11.24.29-.11.35-.11.35-.23.15-.31-.27S85.19,35,85.19,35Z"/><path class="cls-14" d="M85.58,33.73c.27-.33.4-.09.4-.09s.18,0-.07.36-.35.15-.35.15S85.3,34.06,85.58,33.73Z"/><path class="cls-15" d="M116,65.88s-1.92,4-4.72,9-4.34,8.24-4.84,8,.51-.76,3.84-6.7Z"/><path class="cls-15" d="M81.76,50.7c-.84,5.25-.67,6.62-1.54,6.33s.58-3.93,1.53-9.49,1.54-7.65,1.54-7.65S82.61,45.45,81.76,50.7Z"/><path class="cls-16" d="M131.81,62.58c21.8-11.64,44.48-3.61,44.9-1.75S168.06,79.65,139,91.89s-43.91,2.27-43.91,2.27S110,74.22,131.81,62.58Z"/><path class="cls-17" d="M112,87.75a86.56,86.56,0,0,1,4.19-8c1.34-2.22,2.34-1.7,2.67-1.16s-1.45,2.51-2.69,4.64c-.91,1.57-1.86,3-2.33,3.8l.91-.35c3.53-1.37,7.71-3.06,12.23-4.93.3-1.28,2.33-5.61,4-9.54,1.93-4.41,3.8-9.52,4.68-7.49,0,0-2.71,5.38-5,9.93-1.87,3.79-3,6.13-3.26,6.9,3.61-1.5,7.43-3.11,11.32-4.77.29-1.09,2.06-4.38,3.7-8.13,1.9-4.35,4.07-11.42,5.47-9.33,0,0-2.58,5.37-4.88,10-1.85,3.76-3.12,6.13-3.37,7,4.18-1.8,8.41-3.65,12.53-5.5.64-1.62,4.12-8.75,5-10.1,1-1.51,1.4-1.07,1.64-.75s-1.47,2.47-3,5.41c-1.18,2.3-2.1,4.09-2.45,4.91l3.2-1.44c2.44-1.11,4.5-2.08,6.26-2.92A45.68,45.68,0,0,1,165,60.94c.63-1.28,1.28-1,1.54-.74s-.4,1.14-1,2.39c-.41.89-.95,2-1.23,2.72,7.31-3.55,8.3-4.39,8.31-3,0,0-3.18,1.55-8.08,3.84.54.22,1.55.51,2.58.94,1.54.65,2.24.93,2.24.93.36,1.12-.57,1-2.58.06-1.36-.63-2.62-1.09-3.34-1.41-2.82,1.31-6.13,2.83-9.68,4.44.75.23,2.4.52,5,1.17,3.71.92,6.58,1.6,6.58,1.6.41,1.68-2.29.8-6.38-.4-3-.88-5.24-1.52-6.26-1.91-4,1.79-8.24,3.66-12.46,5.44.87.33,2.7.92,5.94,1.84,4.35,1.24,9.56,2,9.44,2.63s-.23,1.11-2.6.65-7.15-2.33-9.93-3.28c-2-.7-3.27-1.09-3.9-1.4l-1.82.76c-3,1.25-6.19,2.58-9.38,3.92.64.29,1.92.84,4.6,1.93,4.11,1.68,9.61,3.23,9.41,4.09s-.18,1.14-2.25.26c-1.86-.79-10.5-4.77-12.44-6-4.7,2-9.39,3.94-13.57,5.65a35.71,35.71,0,0,0,5.27,2.56c2.69,1.19,5.25,2.19,5.25,2.19.23,2.51-3.22.68-6.34-.94a50.74,50.74,0,0,1-5.55-3.24c-7.76,3.16-13.47,5.3-13.68,4.67C98.37,92.19,103,91.1,112,87.75Z"/><path class="cls-18" d="M140.18,91.39a126.29,126.29,0,0,0,18.5-10.2c-2.55,2.56-17.56,10.37-24.12,13.23S128,95.63,128,95.63,130.13,95.78,140.18,91.39Z"/><path class="cls-18" d="M152.42,56.58s.16-.94,6.17-.67a67.44,67.44,0,0,1,13.17,2.35,69.4,69.4,0,0,0-13-1.83A53.78,53.78,0,0,0,152.42,56.58Z"/><path class="cls-19" d="M159.1,75.87c.52,0,.36.35.36.35s.07.22-.41.17-.38-.25-.38-.25S158.58,75.82,159.1,75.87Z"/><path class="cls-19" d="M160.27,75.05s.22,0,0,.46-.39.22-.39.22-.33-.06-.06-.5S160.27,75.05,160.27,75.05Z"/><path class="cls-19" d="M158.51,74.43s.15-.3.5.09,0,.5,0,.5-.09.21-.42-.15S158.51,74.43,158.51,74.43Z"/><path class="cls-19" d="M157.46,74.7s.2-.12.27.37-.15.42-.15.42-.3.16-.37-.35S157.46,74.7,157.46,74.7Z"/><path class="cls-19" d="M158,73.17c.35-.38.5-.08.5-.08s.21.08-.12.43-.42.16-.42.16S157.66,73.55,158,73.17Z"/><path class="cls-19" d="M120.78,84.11c.51.06.36.36.36.36s.07.21-.42.17-.38-.25-.38-.25S120.26,84.06,120.78,84.11Z"/><path class="cls-19" d="M122,83.3s.22,0,0,.45-.39.23-.39.23-.33-.06-.06-.5S122,83.3,122,83.3Z"/><path class="cls-19" d="M120.19,82.68s.15-.3.5.08,0,.51,0,.51-.09.2-.43-.15S120.19,82.68,120.19,82.68Z"/><path class="cls-19" d="M119.14,82.94s.2-.11.26.37-.14.42-.14.42-.3.17-.37-.35S119.14,82.94,119.14,82.94Z"/><path class="cls-19" d="M119.7,81.42c.35-.39.5-.09.5-.09s.21.08-.12.44-.43.15-.43.15S119.34,81.8,119.7,81.42Z"/><path class="cls-11" d="M160.81,108.31c-.16-3.56-8.64-1-8.64-1s16.88-6.08,15.34-9.65-15.68,3.91-15.68,3.91,19.64-13.94,16.61-18S150.22,97,150.22,97s9.16-13.32,4.49-15-15.41,19.44-15.41,19.44,2.17-13.88-2.52-13.45-3.83,24.9-3.83,24.9l3.16,2.5S161,111.86,160.81,108.31Z"/><path class="cls-13" d="M137.58,91.77c-1.27-.47-.84,1.73-1.7,8.32S134,110.82,135,110.82s.95-5.95,1.49-10.88S137.58,91.77,137.58,91.77Z"/><path class="cls-13" d="M152.62,85.84c-.54-.23-3.15,4.92-7.16,11.26s-7.69,12.29-7.69,12.29c1.17.8,3.83-5.38,8-12.12S153.16,86.07,152.62,85.84Z"/><path class="cls-13" d="M144.34,105.76c2.66-2.49,4.76-5,10.77-10.15s10.7-8.74,10.19-9.34-5.54,4.36-12,10.28S140.23,109,140.23,109C140.52,110.17,141.68,108.24,144.34,105.76Z"/><path class="cls-13" d="M139.89,110.57c-.26,1.4,5.46-2.45,12.23-5.78s11.56-5,11.35-5.61-3.73,1.35-11.51,5.23S139.89,110.57,139.89,110.57Z"/><path class="cls-13" d="M149,110.61c-5.39,1-10.77,1.88-10.77,1.88-.8,1.66,4.86-.48,10-1.46s8.55-1.27,8.47-2.1S154.4,109.57,149,110.61Z"/><path class="cls-14" d="M134.4,99.64c-.24-.24-.33,0-.33,0s-.14.06.08.29.28.1.28.1S134.63,99.89,134.4,99.64Z"/><path class="cls-14" d="M134.35,98.72s-.11-.1-.22.19,0,.29,0,.29.16.15.28-.17S134.35,98.72,134.35,98.72Z"/><path class="cls-14" d="M135.37,99.38s.1-.2-.24-.23-.28.18-.28.18-.07.13.25.16S135.37,99.38,135.37,99.38Z"/><path class="cls-14" d="M135.65,100s0-.14-.3,0-.15.25-.15.25,0,.22.32,0S135.65,100,135.65,100Z"/><path class="cls-14" d="M136.22,99.13c.05-.33-.16-.29-.16-.29s-.12-.08-.18.23.09.28.09.28S136.16,99.47,136.22,99.13Z"/><path class="cls-14" d="M157.56,94.25c-.24-.25-.33,0-.33,0s-.14,0,.08.28.28.1.28.1S157.79,94.5,157.56,94.25Z"/><path class="cls-14" d="M157.51,93.32s-.11-.1-.22.2,0,.29,0,.29.16.14.28-.17S157.51,93.32,157.51,93.32Z"/><path class="cls-14" d="M158.53,94s.1-.19-.24-.22-.28.18-.28.18-.07.13.25.16S158.53,94,158.53,94Z"/><path class="cls-14" d="M158.81,94.63s0-.15-.3,0-.15.24-.15.24,0,.22.32.05S158.81,94.63,158.81,94.63Z"/><path class="cls-14" d="M159.38,93.74c.05-.34-.16-.3-.16-.3s-.13-.07-.18.24.09.28.09.28S159.32,94.07,159.38,93.74Z"/><path class="cls-14" d="M147.15,110c-.23-.25-.32-.05-.32-.05s-.14.05.08.28.27.1.27.1S147.39,110.26,147.15,110Z"/><path class="cls-14" d="M147.11,109.08s-.11-.1-.22.2,0,.29,0,.29.16.14.28-.17S147.11,109.08,147.11,109.08Z"/><path class="cls-14" d="M148.13,109.74s.09-.19-.24-.22-.28.18-.28.18-.07.13.25.16S148.13,109.74,148.13,109.74Z"/><path class="cls-14" d="M148.41,110.39s0-.15-.3,0-.16.24-.16.24,0,.22.33,0S148.41,110.39,148.41,110.39Z"/><path class="cls-14" d="M149,109.5c.06-.34-.15-.29-.15-.29s-.13-.08-.18.23.09.28.09.28S148.92,109.83,149,109.5Z"/><path class="cls-15" d="M144.84,91.79a33.87,33.87,0,0,1,3.7-5.43c2.55-3.14,3.62-3.59,3.62-3.59-.74.14-3.43,2.31-5.95,5.9S144.84,91.79,144.84,91.79Z"/><path class="cls-15" d="M155.73,111.39c-.13-.51-.81.25-4.75,1.23s-7.07,1.44-7.07,1.44a33.74,33.74,0,0,0,6-.82C153.4,112.47,155.86,111.91,155.73,111.39Z"/><path class="cls-20" d="M187.73,120.27c8.58-6.69,13.81-11.43,17.1-14.46-.53-1.43-.81-4.22,2.59-7.69,5-5.13,9-5.5,10.83-2.82s1.68,5.9-3.48,11c-3.52,3.46-6.62,2.47-8.22,1.5-3.48,3.07-9.25,7.51-18,13.83-18.27,13.21-32.85,17.76-30.81,12.49C157.75,134.09,169.22,134.7,187.73,120.27Z"/><path class="cls-20" d="M180.09,133.16c7.51-3.49,12.2-6.12,15.16-7.8-.15-1.16.12-3.27,3.23-5.27,4.6-3,7.61-2.55,8.52-.24s.24,4.66-4.45,7.54c-3.21,2-5.34.71-6.36-.29-3.11,1.69-8.15,4-15.71,7.19-15.81,6.68-27.41,7.56-25,4C155.49,138.29,163.89,140.71,180.09,133.16Z"/><path class="cls-20" d="M195.13,98.66c-1.82,3-5,7.58-9.88,14.18C175,126.62,165.48,133.27,165.75,129c0,0,8.47-2.19,18.59-16.92,4.69-6.82,7.39-11.47,9.09-14.42-.72-.92-1.56-2.88.11-6.18,2.46-4.87,5.26-6.06,7.21-4.54s2.58,3.9,0,8.76C199,99,196.51,99,195.13,98.66Z"/><path class="cls-20" d="M182.25,19.1c-.75-.58-5.75,7.34-12.83,10.25-5.66,2.33-8.92,1-10,.44q1.16-1,2.13-1.89c1,.42,3.07.88,6.45-.44,4.94-1.94,8.75-6.94,8.31-7.44s-3.43,4.81-8.25,7c-3.54,1.61-5.52,1.09-6.32.7,4.72-4.5,5.95-7.75,5.14-8.2s-2,3.18-5.78,7.4a13.09,13.09,0,0,1-.48-5.28c.32-4,5.82-10.12,5.82-10.12-.94-1.44-4.44,3.37-5.94,8.19a10.22,10.22,0,0,0,.25,7.59c-.6.64-1.27,1.29-2,1.94-.58-.67-2-2.63-2.49-6.55-.67-5,6.92-15.42,6.92-15.42-1-2.42-5.67,6.67-7.09,11.08s.25,7.84,1.92,10.84a3.13,3.13,0,0,0,.29.42c-.26.22-.51.44-.79.66C150.62,35.64,137.75,41,137.75,41c-1.5,2.25,6.25-.38,16.87-7.63,1.61-1.09,3-2.15,4.27-3.17,2.36,1.89,7.48,1.49,12.61-1C177.42,26.27,183,19.69,182.25,19.1Z"/><path class="cls-11" d="M164.6,5.24a2.53,2.53,0,0,0-2.52-2.78,2.64,2.64,0,0,0-3,2.81,2.5,2.5,0,0,0,3,2.73A2.52,2.52,0,0,0,164.6,5.24Z"/><path class="cls-11" d="M167.77,9.28a2.64,2.64,0,0,0-3.05,2.8,2.79,2.79,0,0,0,5.57,0A2.53,2.53,0,0,0,167.77,9.28Z"/><path class="cls-11" d="M166.46,15.78a2.64,2.64,0,0,0-3.05,2.8,2.79,2.79,0,0,0,5.57,0A2.53,2.53,0,0,0,166.46,15.78Z"/><path class="cls-11" d="M176.08,15.4a2.64,2.64,0,0,0-3,2.8,2.78,2.78,0,0,0,5.56,0A2.53,2.53,0,0,0,176.08,15.4Z"/><path class="cls-11" d="M184.08,17.34a2.64,2.64,0,0,0-3,2.8,2.78,2.78,0,0,0,5.56,0A2.53,2.53,0,0,0,184.08,17.34Z"/><path class="cls-20" d="M294.12,27.77a121,121,0,0,0-15.48-2.85c13.1-2.54,22.28-2.82,22.11-3.65s-9.32-.89-23.68,2.46c1.52-1.45,4.68-4.45,8.18-7.59,4.87-4.37,8.13-6.5,6.5-6.87,0,0-12.94,11.3-16.07,14.8A176.52,176.52,0,0,0,253.75,31a67.61,67.61,0,0,1,10.81-13.77c1.61-1.55,3.11-2.86,4.48-4,.59-.2,2-.63,4.71-1.33,4-1,6.42-1,6.42-1.33s-1.46,0-4.17.5c-2.08.42-5.18,1.37-6.52,1.79,4.44-3.58,7.33-5.07,7.14-5.39s-5.87,3.12-13.31,10.5c-6.26,6.21-10.21,11.83-10.29,13.3h0c-4.39,1.71-8.37,3.49-11.95,5.28.5-1.57,1.61-5,2.89-9.16,1.75-5.68,2.94-7.31,2.44-7.43s-2.32,6.31-4.38,12c-.89,2.45-1.53,4.06-2,5.11a108,108,0,0,0-10.86,6.29c.84-2.8,2.58-8.48,4.84-15.67,3.25-10.34,9-20.84,8.58-21.09s-5.35,10.16-9.28,21.61c-.22-.77-.78-2.66-1.59-5.36-1.08-3.58-1.5-6-2-5.71s.88,3.25,2,7.05a39.8,39.8,0,0,1,1.2,5.08c-.07.19-.14.39-.2.58-2.43,7.34-3.81,11.78-4.52,14.14-9.51,6.52-13.13,11.95-11,13a100.94,100.94,0,0,1,14-12.37,136,136,0,0,1,15.9-2.07c6.57-.25,14.69,2.44,14.69,1.94s-5.18-1.94-13.06-2.29c4.22-1,8.71-3.16,8.66-3.4s-.82.56-4.35,1.75c-2.43.82-4.49,1.35-5.54,1.61A81.14,81.14,0,0,0,232.8,43.5a97.49,97.49,0,0,1,22-12,76.34,76.34,0,0,1,10.73,1.73c7.88,1.68,13.06,4.62,13.13,4.12s-1.44-1-7.25-3c-4.77-1.64-12.82-2.86-15.55-3.24l.86-.32a151.94,151.94,0,0,1,19.14-5.29c3.07.74,13.42,1.13,19.86,3.66,7.63,3,9.63,4.88,10,4.38S302.62,30,294.12,27.77Z"/><path class="cls-6" d="M227.75,14.71a2.65,2.65,0,0,0-3.05,2.81,2.79,2.79,0,0,0,5.57,0A2.53,2.53,0,0,0,227.75,14.71Z"/><path class="cls-6" d="M248.67,18.46a2.65,2.65,0,0,0-3,2.81,2.79,2.79,0,0,0,5.57,0A2.53,2.53,0,0,0,248.67,18.46Z"/><path class="cls-6" d="M262.19,39.07a2.53,2.53,0,0,0-2.52-2.77,2.64,2.64,0,0,0-3.05,2.8,2.79,2.79,0,0,0,5.57,0Z"/><path class="cls-6" d="M263.75,41.3a2.64,2.64,0,0,0-3.05,2.8,2.79,2.79,0,0,0,5.57,0A2.53,2.53,0,0,0,263.75,41.3Z"/><path class="cls-6" d="M281.83,7.46a2.64,2.64,0,0,0-3,2.81,2.78,2.78,0,0,0,5.56,0A2.53,2.53,0,0,0,281.83,7.46Z"/><path class="cls-6" d="M278.52,5.4A2.53,2.53,0,0,0,276,2.63,2.65,2.65,0,0,0,273,5.43,2.5,2.5,0,0,0,276,8.16,2.51,2.51,0,0,0,278.52,5.4Z"/><path class="cls-6" d="M307.58,29.88a2.64,2.64,0,0,0-3,2.8,2.78,2.78,0,0,0,5.56,0A2.53,2.53,0,0,0,307.58,29.88Z"/><path class="cls-6" d="M242.26,1.09a3.41,3.41,0,0,0-3.93,3.62,3.24,3.24,0,0,0,3.93,3.53,3.26,3.26,0,0,0,3.26-3.57A3.27,3.27,0,0,0,242.26,1.09Z"/><path class="cls-6" d="M280.76,32.84a3.41,3.41,0,0,0-3.93,3.62,3.6,3.6,0,0,0,7.19,0A3.27,3.27,0,0,0,280.76,32.84Z"/><path class="cls-6" d="M291.51,3.59a3.41,3.41,0,0,0-3.93,3.62,3.24,3.24,0,0,0,3.93,3.53,3.26,3.26,0,0,0,3.26-3.57A3.27,3.27,0,0,0,291.51,3.59Z"/><path class="cls-6" d="M301.76,17.34A3.41,3.41,0,0,0,297.83,21a3.6,3.6,0,0,0,7.19,0A3.27,3.27,0,0,0,301.76,17.34Z"/><path class="cls-20" d="M258.34,97.8c1.3.06,4.78.23,10.49.55,7.42.42,14.59,2.59,14.67,1.92s-2.17-.92-8.83-1.92a140.46,140.46,0,0,0-14.4-1.14c6.88-2,11-2.76,11-3.94,0-1.71-13.51,3.51-26,8.65a24.93,24.93,0,0,0,3-5.82,104.08,104.08,0,0,0,3.67-12.58c-1.34-.5-1.84,5.17-3.17,9.67a41.17,41.17,0,0,1-4.53,9.14,84.06,84.06,0,0,0-15.72,8.6c.46-1.26,1.2-3.28,2.17-5.74,1.66-4.25,2.91-12,2.91-12-1-.59-1.33,4.33-2.83,9.75a88.71,88.71,0,0,1-3,8.53c-3.63,2.67-5.45,4.75-4.25,5,0,0,1.78-1.54,4.79-3.75a84.21,84.21,0,0,1,13.54-1.5c7.5,0,13,1.08,13.09.42s-2.5-.34-8.5-.75c-4.94-.35-14.2.83-17.34,1.26a101.91,101.91,0,0,1,15.07-9c1.31,0,5.32.08,12.1.76,8.42.83,15.83,2.83,15.83,2.16s-3.75-.75-12.91-2.16a86.49,86.49,0,0,0-14.11-1.18c1.12-.52,2.27-1,3.44-1.49C252.14,99.81,255.44,98.69,258.34,97.8Z"/><path class="cls-16" d="M278.17,85.14c-1.82-1.31-4.94,1.25-6.57,3.57S266.92,95,266.92,95a35.86,35.86,0,0,0,9.25-2.75C281,90.08,280,86.46,278.17,85.14Z"/><path class="cls-16" d="M296.38,100.08c-.38-2.56-3.44-2-7.69-1.5s-8.07,1.06-8.07,1.06,2.57,3.94,9.07,4.88S296.75,102.64,296.38,100.08Z"/><path class="cls-16" d="M250,89.64s3.31-.87,4.75-6.87-1.37-9.88-3.87-9.75-3.32,5-2.38,9.25S250,89.64,250,89.64Z"/><path class="cls-16" d="M274.5,104.83c-3.75.19-8.81.31-8.81.31a20.63,20.63,0,0,0,8.5,5.32c5.62,1.93,8.12-.38,8.31-3.19S278.25,104.64,274.5,104.83Z"/><path class="cls-16" d="M231.25,81.52c-2.44,1-.81,7.12-.19,12.12s.82,7,.82,7,3.93-3.62,5.06-11.18S233.69,80.52,231.25,81.52Z"/><path class="cls-16" d="M254.56,109.58c-3.5.88-7.87,1.63-7.87,1.63a18.72,18.72,0,0,0,9.69,4.5c6.31,1.06,7.81-1.44,7.43-4.75S258.06,108.71,254.56,109.58Z"/><path class="cls-6" d="M208.92,147.43a2.12,2.12,0,1,0,2.71,1.29A2.12,2.12,0,0,0,208.92,147.43Z"/><path class="cls-6" d="M216.76,144.65a2.12,2.12,0,1,0-1.29,2.71A2.12,2.12,0,0,0,216.76,144.65Z"/><path class="cls-6" d="M209,144.26a2.12,2.12,0,1,0-2.71-1.28A2.1,2.1,0,0,0,209,144.26Z"/><path class="cls-6" d="M276.67,60.43a2.12,2.12,0,1,0,2.71,1.29A2.12,2.12,0,0,0,276.67,60.43Z"/><path class="cls-6" d="M284.51,57.65a2.12,2.12,0,1,0-1.29,2.71A2.12,2.12,0,0,0,284.51,57.65Z"/><path class="cls-6" d="M276.74,57.26A2.12,2.12,0,1,0,274,56,2.1,2.1,0,0,0,276.74,57.26Z"/><path class="cls-6" d="M199.67,27.93a2.12,2.12,0,1,0,2.71,1.29A2.12,2.12,0,0,0,199.67,27.93Z"/><path class="cls-6" d="M207.51,25.15a2.12,2.12,0,1,0-1.29,2.71A2.12,2.12,0,0,0,207.51,25.15Z"/><path class="cls-6" d="M199.74,24.76A2.12,2.12,0,1,0,197,23.48,2.1,2.1,0,0,0,199.74,24.76Z"/><path class="cls-6" d="M56.17,54.68A2.12,2.12,0,1,0,58.88,56,2.12,2.12,0,0,0,56.17,54.68Z"/><path class="cls-6" d="M64,51.9a2.12,2.12,0,1,0-1.29,2.71A2.12,2.12,0,0,0,64,51.9Z"/><path class="cls-6" d="M56.24,51.51a2.12,2.12,0,1,0-2.71-1.28A2.1,2.1,0,0,0,56.24,51.51Z"/><path class="cls-21" d="M9.83,127.77c-13.66,44.67,7.34,77.67,31.67,86.33,0,0-11-39.66.67-81s32-49.66,32-49.66l.66-12.67S23.5,83.1,9.83,127.77Z"/><path class="cls-22" d="M67.53,85s-32.28,12-41,43.77.5,67.5.5,67.5-12-5.5-13.75-46S41.05,85,67.53,85Z"/><path class="cls-23" d="M13.17,118.44s-7.84,16.66-7.5,33.33,4.5,24,2.66,24.33-5.16-6.66-3.66-27.33S13.17,118.44,13.17,118.44Z"/><path class="cls-21" d="M77.5,231.77s16.5,17,14,36.5-42,36.5-37,74.5,24,24.5,24.5,33-11,11.5-8,21,14,3,15,9-7.5,8-.5,15.5,15.5,1.5,16-13-11.5-44-8-69.5,24.5-60.5,24.5-60.5S110,222.27,77.5,231.77Z"/><path class="cls-22" d="M95,268s-3,17-10.25,23.5-27.5,19.25-25,43S78.5,361,80.5,367s-1,9.25,2,9,4.5-3.5-.25-13.5-22.5-12.75-20-36.75S84,301.77,90.75,289,98.75,265,95,268Z"/><path class="cls-22" d="M67,327c-.25,10.75,3.75,14.75,6,13.75s-1.5-4.75-2.25-13.5A23.84,23.84,0,0,1,75,312C72.75,307.77,67.25,316.27,67,327Z"/><path class="cls-22" d="M80.83,395.27c-2.33-2.33-2-7.5-2-7.5-3.5-2-4.66,5.17-2.83,9.5s6,3.67,7,2.17S83.17,397.6,80.83,395.27Z"/><path class="cls-24" d="M84.12,287.18c-1.14-.32-1.06.44-1.06.44s-.33.41.74.71,1-.21,1-.21S85.26,287.5,84.12,287.18Z"/><path class="cls-24" d="M82.32,284.49s-.5-.11-.31,1,.64.81.64.81.74.14.53-1S82.32,284.49,82.32,284.49Z"/><path class="cls-24" d="M86.55,284.64s-.06-.77-1.13-.24-.5,1-.5,1,0,.51,1,0S86.55,284.64,86.55,284.64Z"/><path class="cls-24" d="M88.54,286.06s-.32-.41-.86.56,0,1,0,1,.49.6,1.07-.44S88.54,286.06,88.54,286.06Z"/><path class="cls-24" d="M88.64,282.37c-.43-1.1-1-.58-1-.58s-.51,0-.11,1,.77.68.77.68S89.07,283.48,88.64,282.37Z"/><path class="cls-24" d="M82.34,363c-1.14-.31-1.06.45-1.06.45s-.32.4.74.7,1-.21,1-.21S83.49,363.31,82.34,363Z"/><path class="cls-24" d="M80.54,360.29s-.5-.1-.3,1,.63.8.63.8.75.15.54-1S80.54,360.29,80.54,360.29Z"/><path class="cls-24" d="M84.77,360.44s-.06-.76-1.12-.24-.51,1-.51,1,0,.51,1,0S84.77,360.44,84.77,360.44Z"/><path class="cls-24" d="M86.77,361.87s-.32-.41-.86.56,0,1,0,1,.49.6,1.07-.43S86.77,361.87,86.77,361.87Z"/><path class="cls-24" d="M86.86,358.18c-.43-1.1-1-.59-1-.59s-.51,0-.11,1,.77.68.77.68S87.3,359.29,86.86,358.18Z"/><path class="cls-24" d="M78,403.18c-1.13-.32-1.06.44-1.06.44s-.32.41.74.71,1-.21,1-.21S79.18,403.5,78,403.18Z"/><path class="cls-24" d="M76.23,400.49s-.5-.11-.3,1,.63.81.63.81.75.14.54-1S76.23,400.49,76.23,400.49Z"/><path class="cls-24" d="M80.46,400.63s-.06-.76-1.12-.23-.51,1-.51,1,0,.51,1,0S80.46,400.63,80.46,400.63Z"/><path class="cls-24" d="M82.46,402.06s-.32-.41-.86.56,0,1,0,1,.49.6,1.07-.44S82.46,402.06,82.46,402.06Z"/><path class="cls-24" d="M82.55,398.37c-.42-1.1-1-.58-1-.58s-.51,0-.11,1,.77.68.77.68S83,399.48,82.55,398.37Z"/><path class="cls-23" d="M59.67,313.1s-8.34,16-4.67,33.5,10.17,20.34,9.17,22-6.84-.83-10.17-22.5S59.67,313.1,59.67,313.1Z"/><path class="cls-25" d="M154.15,218.91,84.12,231S98,248,105.65,266.59s10.13,40.82,10.13,40.82,24.48,1.24,38.12-14.34S163.5,249.65,154.15,218.91Z"/><path class="cls-26" d="M124,241.1a230.46,230.46,0,0,1-32.67-.5l7.84,13s4.16,2.5,22.83-1.33,25.5-14.67,25.5-14.67S142.17,240.1,124,241.1Z"/><path class="cls-27" d="M116.74,256c-1.14-.31-1.07.44-1.07.44s-.32.41.75.71,1-.21,1-.21S117.88,256.3,116.74,256Z"/><path class="cls-27" d="M114.93,253.29s-.5-.11-.3,1,.63.81.63.81.75.14.54-1S114.93,253.29,114.93,253.29Z"/><path class="cls-27" d="M119.17,253.44s-.06-.77-1.13-.24-.5,1-.5,1,0,.51,1,0S119.17,253.44,119.17,253.44Z"/><path class="cls-27" d="M121.16,254.86s-.32-.4-.86.56,0,1,0,1,.49.6,1.07-.43S121.16,254.86,121.16,254.86Z"/><path class="cls-27" d="M121.26,251.17c-.43-1.1-1-.58-1-.58s-.51,0-.11,1,.77.68.77.68S121.69,252.28,121.26,251.17Z"/><path class="cls-25" d="M130.67,125.44A311,311,0,0,1,67.53,85C45.17,94.06,20,114.47,20,160.55,20,243.3,104.12,244,104.12,244s86.26,8.42,86.26-82.05a119.56,119.56,0,0,0-1-16.12C177.88,143.5,157.08,138,130.67,125.44Z"/><path class="cls-26" d="M33.17,125.77c2.83.83,3.66-8.5,9.5-17.5S60,91.1,60,91.1c-1.17-3.5-8.5,3.17-18,14.67S30.33,124.94,33.17,125.77Z"/><path class="cls-26" d="M32.83,128.1c-1.66-3.16-5,1.5-7.5,17.17s-.83,22.83,1.17,22.67-.17-8.84,1-20.67S32.83,128.1,32.83,128.1Z"/><path class="cls-26" d="M37.83,123.6c-6,14.34-6.16,24.67-4,24.84s.84-7.67,5.34-21.34A84.36,84.36,0,0,1,52.5,102.77C50,99.1,43.83,109.27,37.83,123.6Z"/><path class="cls-26" d="M70.67,228.6A83.56,83.56,0,0,1,48.5,214.44c-5.17.5-1.17,4.5,15.17,14s26.66,8.16,26.83,6S83.17,233.77,70.67,228.6Z"/><path class="cls-26" d="M70.67,226.6c11,5,14.83,5.34,15.33,3.17s-5.83-1.83-13.17-5a64.25,64.25,0,0,1-12.33-7C57.17,217.94,59.67,221.6,70.67,226.6Z"/><path class="cls-28" d="M100.5,144.6c-5-5.16-8.33-9-8.33-9-3.5-.16-1.5,3.84,5.33,10.17s10,8.33,11.17,6.17S105.5,149.77,100.5,144.6Z"/><path class="cls-28" d="M158,200.44a17.32,17.32,0,0,1-4-5.34c-3.83-.33-1.33,3.67,2,7.5s5.33,4.34,6.5,2.84S160.67,202.77,158,200.44Z"/><path class="cls-29" d="M69.5,236.94a63.7,63.7,0,0,1-21.83-12.67s4.5,7.17,21,13.5,22.5,6.83,22.5,4.67S83.33,241.77,69.5,236.94Z"/><path class="cls-29" d="M30.67,112.1c-8,11.5-9.5,19-7.5,20s3.16-8.33,8-18.33S49.5,95.1,49.5,95.1A57.4,57.4,0,0,0,30.67,112.1Z"/><path class="cls-27" d="M28.36,154.8c-1.62-.44-1.51.63-1.51.63s-.46.58,1.06,1,1.43-.3,1.43-.3S30,155.27,28.36,154.8Z"/><path class="cls-27" d="M25.8,151s-.71-.16-.43,1.39.9,1.15.9,1.15,1.06.21.76-1.45S25.8,151,25.8,151Z"/><path class="cls-27" d="M31.82,151.19s-.08-1.09-1.6-.34-.72,1.47-.72,1.47.05.73,1.46,0S31.82,151.19,31.82,151.19Z"/><path class="cls-27" d="M34.66,153.22s-.45-.58-1.22.79-.06,1.45-.06,1.45.69.85,1.52-.62S34.66,153.22,34.66,153.22Z"/><path class="cls-27" d="M34.8,148c-.61-1.57-1.42-.84-1.42-.84s-.73,0-.16,1.45,1.1,1,1.1,1S35.41,149.54,34.8,148Z"/><path class="cls-27" d="M86.06,138.14c-1.62-.45-1.51.63-1.51.63s-.46.57,1,1,1.44-.29,1.44-.29S87.69,138.6,86.06,138.14Z"/><path class="cls-27" d="M83.49,134.31s-.71-.15-.43,1.4.9,1.15.9,1.15,1.07.21.77-1.45S83.49,134.31,83.49,134.31Z"/><path class="cls-27" d="M89.52,134.52s-.09-1.09-1.6-.33-.73,1.47-.73,1.47,0,.73,1.46,0S89.52,134.52,89.52,134.52Z"/><path class="cls-27" d="M92.35,136.55s-.45-.58-1.22.8,0,1.45,0,1.45.69.85,1.51-.62S92.35,136.55,92.35,136.55Z"/><path class="cls-27" d="M92.49,131.3c-.61-1.56-1.41-.83-1.41-.83s-.73,0-.16,1.44,1.09,1,1.09,1S93.11,132.88,92.49,131.3Z"/><path class="cls-27" d="M43.46,219.05c-1.62-.44-1.51.63-1.51.63s-.46.58,1,1,1.44-.3,1.44-.3S45.09,219.52,43.46,219.05Z"/><path class="cls-27" d="M40.89,215.23s-.71-.16-.43,1.39.9,1.15.9,1.15,1.07.21.77-1.45S40.89,215.23,40.89,215.23Z"/><path class="cls-27" d="M46.92,215.44s-.09-1.09-1.6-.34-.72,1.47-.72,1.47,0,.73,1.45,0S46.92,215.44,46.92,215.44Z"/><path class="cls-27" d="M49.75,217.47s-.45-.58-1.22.79-.05,1.45-.05,1.45.69.85,1.52-.62S49.75,217.47,49.75,217.47Z"/><path class="cls-27" d="M49.89,212.22c-.61-1.57-1.41-.84-1.41-.84s-.73,0-.16,1.45,1.1,1,1.1,1S50.51,213.79,49.89,212.22Z"/><path class="cls-27" d="M156,209.8c-1.62-.44-1.51.63-1.51.63s-.46.58,1.05,1,1.44-.3,1.44-.3S157.59,210.27,156,209.8Z"/><path class="cls-27" d="M153.39,206s-.71-.16-.43,1.39.9,1.15.9,1.15,1.07.21.77-1.45S153.39,206,153.39,206Z"/><path class="cls-27" d="M159.42,206.19s-.09-1.09-1.6-.34-.72,1.47-.72,1.47,0,.73,1.45,0S159.42,206.19,159.42,206.19Z"/><path class="cls-27" d="M162.25,208.22s-.45-.58-1.22.79-.05,1.45-.05,1.45.69.85,1.52-.62S162.25,208.22,162.25,208.22Z"/><path class="cls-27" d="M162.39,203c-.61-1.57-1.41-.84-1.41-.84s-.73,0-.16,1.45,1.1,1,1.1,1S163,204.54,162.39,203Z"/><path class="cls-26" d="M160,165.44c-1.75-9.63-11.37-9-11.37-9a18.37,18.37,0,0,1,6,10.75,30.47,30.47,0,0,1,.12,12.12S161.79,175.06,160,165.44Z"/><path class="cls-29" d="M143.84,156.88s8.41-1.29,12.61,4.14a8,8,0,0,0-4,3.39,9,9,0,0,0-1.18,7.53l3.69-4a13.2,13.2,0,0,1,3.51-2.54c2,8.79-5,15.25-5,15.25a7.35,7.35,0,0,0,8.57-4.44C164.81,170.17,162.89,148,143.84,156.88Z"/><path class="cls-29" d="M132.5,147.77s4.67-5.67,10.67-6,10.66,2.83,10.83,1.5-4.5-4.67-11.5-2.67A17.63,17.63,0,0,0,132.5,147.77Z"/><path class="cls-21" d="M73.2,148.44c-1-5.67-13.5-14.84-19.5-13.5s-5.66,8.5-5.66,8.5,5-1.17,12.66,1.66,11.5,10.67,11.5,10.67S74.2,154.1,73.2,148.44Z"/><path class="cls-23" d="M65.7,139.1c-5.58-4-8.41-4.08-8.41-4.08A27.67,27.67,0,0,1,66,139.85c4.58,3.67,4.66,5.17,5.25,4.5S71.29,143.1,65.7,139.1Z"/><path class="cls-21" d="M47.49,135.64a9.08,9.08,0,0,0-1.37,3.88c-.13,2,.75,3.87-.13,4.12s-3,0-2.75-3.75S45.87,133.64,47.49,135.64Z"/><path class="cls-26" d="M54.42,160.52c-5.25-4.92-5.09-10.08-5.09-10.08s-7.16,5.41-1.08,11.41S64,166,64,166,59.67,165.44,54.42,160.52Z"/><path class="cls-23" d="M53.88,164.52c-5.5-2.13-7.26-5.38-7.26-5.38L42.12,163a24.58,24.58,0,0,0,10.5,4.75c6.88,1.5,13.63-1.88,13.63-1.88S59.38,166.64,53.88,164.52Z"/><path class="cls-29" d="M29.25,204.52s8.75,1.87,16.37-2.38,9.26-7.87,9.26-7.87,3,4.75-7.26,10.75A16.52,16.52,0,0,1,29.25,204.52Z"/><path class="cls-30" d="M85.48,172.51S71,170.78,71,185.85c0,15.69,14.51,13,14.51,13s12,.2,12-13.15S85.48,172.51,85.48,172.51Z"/><path class="cls-31" d="M71.93,178.25s-2.38-1.31-3.56,3.09S70,185.66,70,185.66s1.76.5,2.76-3.22S71.93,178.25,71.93,178.25Z"/><path class="cls-31" d="M79.84,176.7s-2.4-1.3-3.59,3.1,1.59,4.32,1.59,4.32,1.76.5,2.76-3.22S79.84,176.7,79.84,176.7Z"/><path class="cls-31" d="M85.68,178.74S83,178.46,83.59,183s3.13,3.38,3.13,3.38,1.82-.23,1.3-4S85.68,178.74,85.68,178.74Z"/><path class="cls-31" d="M93,176.56s-2.63-.7-2.73,3.86,2.55,3.82,2.55,3.82,1.83.07,1.92-3.79S93,176.56,93,176.56Z"/><path class="cls-21" d="M66.83,80.1s13.34,42,33.67,59.67,28.67,14,28.67,14,10-20.67,29.33-9.33,14.67,43.33-3.33,45.66c0,0,10.66,16.67,26,21.34,0,0,16.33-31,12.66-69.34,0,0-28.33-8-67.33-37S77.83,66.44,77.83,66.44,65.5,66.44,66.83,80.1Z"/><path class="cls-22" d="M74.67,87.27c-3.67-.67-.5,5,5.33,17.83s10,16.34,11.17,14.84-3.67-4-8.5-13.84A191.83,191.83,0,0,1,74.67,87.27Z"/><path class="cls-22" d="M104.67,133.44A86.91,86.91,0,0,1,92.83,121.1c-3.83.5,2,6.17,9,13s12.5,9.5,13.34,7.67S110.83,138.44,104.67,133.44Z"/><path class="cls-22" d="M104.92,127.6c1-2.33-3-3.16-10.34-13.5s-11-16.66-11-16.66c-4.5-.67-.66,5.66,8.34,17.16S103.92,129.94,104.92,127.6Z"/><path class="cls-32" d="M131.67,114.6a67.88,67.88,0,0,1-6.67-7.83c-4-.17.83,5,5.33,10.33s7.84,6.67,8.67,4.34S135.5,118.44,131.67,114.6Z"/><path class="cls-24" d="M72.32,92.06c-1.14-.31-1.06.44-1.06.44s-.33.41.74.71S73,93,73,93,73.46,92.39,72.32,92.06Z"/><path class="cls-24" d="M70.52,89.37s-.5-.11-.31,1,.64.81.64.81.74.15.53-1S70.52,89.37,70.52,89.37Z"/><path class="cls-24" d="M74.75,89.52s-.06-.77-1.12-.24-.51,1-.51,1,0,.51,1,0S74.75,89.52,74.75,89.52Z"/><path class="cls-24" d="M76.74,91s-.31-.41-.86.56,0,1,0,1,.48.6,1.06-.43S76.74,91,76.74,91Z"/><path class="cls-24" d="M76.84,87.26c-.43-1.1-1-.59-1-.59s-.52,0-.12,1,.78.68.78.68S77.28,88.37,76.84,87.26Z"/><path class="cls-24" d="M135.7,122c-1.14-.31-1.06.44-1.06.44s-.32.41.74.71,1-.21,1-.21S136.85,122.34,135.7,122Z"/><path class="cls-24" d="M133.9,119.32s-.5-.11-.31,1,.64.81.64.81.75.15.54-1S133.9,119.32,133.9,119.32Z"/><path class="cls-24" d="M138.13,119.47s-.06-.77-1.12-.24-.51,1-.51,1,0,.51,1,0S138.13,119.47,138.13,119.47Z"/><path class="cls-24" d="M140.13,120.9s-.32-.41-.86.56,0,1,0,1,.48.6,1.07-.43S140.13,120.9,140.13,120.9Z"/><path class="cls-24" d="M140.22,117.21c-.43-1.1-1-.59-1-.59s-.51,0-.11,1,.77.68.77.68S140.66,118.32,140.22,117.21Z"/><path class="cls-23" d="M93.88,132.64s8,9.88,18,15.5,13.5,4.75,13.24,6.5-6.5-.87-16.62-7.87S93.88,132.64,93.88,132.64Z"/><path class="cls-23" d="M68.75,85.64c-.19-1.43-.25-3.87-.25-3.87-.88-.56-1.25.56-1,3.23s.91,3.77,1.72,3.52S68.94,87.08,68.75,85.64Z"/><path class="cls-23" d="M66.81,82c-1.06-.63-1.5.87-1.19,3.62s.82,3.44,1.63,3.25-.13-1.75-.37-3.5A14.41,14.41,0,0,1,66.81,82Z"/><path class="cls-25" d="M23.17,152.77s3,26.67-2.67,31.33S.17,188.77.17,193.77s8.33,7.67,30.33,2Z"/><path class="cls-29" d="M0,195.39s2.75,3.75,9.25,3.75,9-2.12,9-.5-3.5,3-10.75,1.25S0,195.39,0,195.39Z"/><path class="cls-25" d="M199.5,291.44c-20.67-43.34-81.33-31.34-102.67,4.66s8.67,138,8.67,138l149.33-.66S220.17,334.77,199.5,291.44Z"/><path class="cls-29" d="M153.75,347.27s5,24.5,10.5,49.25,8,37,8,37l3-.25s-5.75-23.5-11.5-49.25S153.75,347.27,153.75,347.27Z"/><path class="cls-29" d="M103.67,286.85s3.5-4.83,6.83-6.66a23.8,23.8,0,0,1,5.5-2.34s-4.83-2.83-8.67.34S103.67,286.85,103.67,286.85Z"/><path class="cls-26" d="M97.5,365.52c3-.25-1-6.25-1.25-24.5a160.51,160.51,0,0,1,3-33c-4.25-4.75-7,4.75-6.75,27.5S94.5,365.77,97.5,365.52Z"/><path class="cls-26" d="M99.25,369.52c-6-1.5-3.25,7,2.5,31.5s4.75,28.5,8.5,27.75-1-6.75-4.75-24.5S99.25,369.52,99.25,369.52Z"/><path class="cls-26" d="M106.58,369.69c-3.25-24.25-4-37-4-37-5.5-2.25-3.75,5.5.25,34s5.25,34.5,8.5,34S109.83,393.94,106.58,369.69Z"/><path class="cls-27" d="M99.7,319.92c-1.62-.45-1.51.63-1.51.63s-.46.57,1,1,1.44-.3,1.44-.3S101.33,320.38,99.7,319.92Z"/><path class="cls-27" d="M97.13,316.09s-.71-.16-.43,1.39.9,1.15.9,1.15,1.07.21.77-1.45S97.13,316.09,97.13,316.09Z"/><path class="cls-27" d="M103.16,316.3s-.09-1.09-1.6-.34-.73,1.48-.73,1.48,0,.72,1.46,0S103.16,316.3,103.16,316.3Z"/><path class="cls-27" d="M106,318.33s-.45-.58-1.22.8-.06,1.44-.06,1.44.7.85,1.52-.62S106,318.33,106,318.33Z"/><path class="cls-27" d="M106.13,313.08c-.61-1.57-1.42-.83-1.42-.83s-.72,0-.15,1.44,1.09,1,1.09,1S106.75,314.66,106.13,313.08Z"/><path class="cls-27" d="M160,375.92c-1.62-.45-1.51.62-1.51.62s-.46.58,1.06,1,1.43-.3,1.43-.3S161.66,376.38,160,375.92Z"/><path class="cls-27" d="M157.47,372.09s-.71-.16-.44,1.39.91,1.15.91,1.15,1.06.21.76-1.45S157.47,372.09,157.47,372.09Z"/><path class="cls-27" d="M163.49,372.3s-.09-1.09-1.6-.34-.72,1.48-.72,1.48,0,.72,1.46,0S163.49,372.3,163.49,372.3Z"/><path class="cls-27" d="M166.33,374.33s-.45-.58-1.23.79,0,1.45,0,1.45.69.85,1.52-.62S166.33,374.33,166.33,374.33Z"/><path class="cls-27" d="M166.46,369.08c-.61-1.57-1.41-.84-1.41-.84s-.73,0-.16,1.45,1.1,1,1.1,1S167.08,370.66,166.46,369.08Z"/><path class="cls-27" d="M105.38,428.72c-1.63-.45-1.52.63-1.52.63s-.46.58,1.06,1,1.44-.29,1.44-.29S107,429.18,105.38,428.72Z"/><path class="cls-27" d="M102.81,424.89s-.71-.15-.43,1.4.9,1.15.9,1.15,1.06.21.76-1.45S102.81,424.89,102.81,424.89Z"/><path class="cls-27" d="M108.83,425.1s-.08-1.09-1.59-.33-.73,1.47-.73,1.47,0,.73,1.46,0S108.83,425.1,108.83,425.1Z"/><path class="cls-27" d="M111.67,427.13s-.45-.58-1.22.8-.06,1.45-.06,1.45.7.85,1.52-.62S111.67,427.13,111.67,427.13Z"/><path class="cls-27" d="M111.81,421.88c-.61-1.56-1.42-.83-1.42-.83s-.73,0-.16,1.44,1.1,1,1.1,1S112.43,423.46,111.81,421.88Z"/><path class="cls-21" d="M193.83,142.1s.17,34.67,5.17,50.67,40.5,20,46.5,50.5-3.5,47,2,64.5,64.5,6,77,36.5.5,46,5.5,54.5,19,17.5,18.5,35H220s-32-9-37.5-49.5,2.5-69.5-6.5-98.5-21-11.5-29.5-27.5c-13.37-25.17,15.5-27,24.5-55.5S193.83,142.1,193.83,142.1Z"/><path class="cls-22" d="M187.5,263c-9.75-16.25-21.5-7.5-26-13.5s-2.5-15.75-6-11.75c0,0-1.25,9.25,4.75,15.5s18.75,1.5,25.5,14-2.5,21,1.25,21.5S197.25,279.27,187.5,263Z"/><path class="cls-22" d="M193.5,262.77c1.75,5.25,1,9.75,4,9.5s2.75-5.5-1.25-12.25-11.5-11.5-11-6.25C185.25,253.77,191.75,257.52,193.5,262.77Z"/><path class="cls-22" d="M201.83,377.44c-11.33-27.67-8.66-79-8.66-79-5.67-5.34-7.34,41,4.33,78s28,42,30.33,38.33S213.17,405.1,201.83,377.44Z"/><path class="cls-22" d="M191.83,372.44c-5-2.67-5,6,3,25.66s13.67,21.34,15.67,18.67-3.33-3-10.33-16.67A86.06,86.06,0,0,1,191.83,372.44Z"/><path class="cls-22" d="M275.83,411.1c-3.66-4.66,3.67-11.66-1.66-24.33s-36.67-.67-51.67-28.67,5-56,.67-80.66-20.67-24-30.34-39.34-6.33-33-6.33-33c-3.33-4.33-6.33,4-4.33,17.67s5.66,17.67,18.66,27.67,22,22.66,18.67,45-9.33,51,3.67,71,43.66,10.66,48,21-4.67,14-.67,25.33,14,8.33,15.67,5S279.5,415.77,275.83,411.1Z"/><path class="cls-22" d="M229.25,302.27c3.5.75,4.25-5.25,4-15s-2-21.25-5-15.75c0,0,2,6,1.25,15.5S225.75,301.52,229.25,302.27Z"/><path class="cls-22" d="M244.25,384a64,64,0,0,1-14-5.5c-4.25,2,2.75,5.75,12,9.5s14.25,2.75,14.25-.5S251.5,385.77,244.25,384Z"/><path class="cls-32" d="M222.83,219.44a37.92,37.92,0,0,1,10.34,10.16c4.16,6.34,2.83,9.84,4.83,9.34s2-4.84-4.67-12.67S222.67,215.94,222.83,219.44Z"/><path class="cls-32" d="M320.67,347.1c-5-11.33-9.17-13.66-9.5-10,0,0,6.5,6.34,8.5,14.67s.33,11.17,2.66,11.33S325.67,358.44,320.67,347.1Z"/><path class="cls-24" d="M158,259.51c-1.14-.31-1.06.44-1.06.44s-.32.41.74.71,1-.21,1-.21S159.1,259.84,158,259.51Z"/><path class="cls-24" d="M156.15,256.82s-.5-.11-.31,1,.64.81.64.81.75.15.54-1S156.15,256.82,156.15,256.82Z"/><path class="cls-24" d="M160.38,257s-.06-.77-1.12-.24-.51,1-.51,1,0,.51,1,0S160.38,257,160.38,257Z"/><path class="cls-24" d="M162.38,258.4s-.32-.41-.86.56,0,1,0,1,.48.6,1.07-.43S162.38,258.4,162.38,258.4Z"/><path class="cls-24" d="M162.47,254.71c-.43-1.1-1-.59-1-.59s-.51,0-.11,1,.77.68.77.68S162.91,255.82,162.47,254.71Z"/><path class="cls-24" d="M238.68,237.23c-1.14-.31-1.07.45-1.07.45s-.32.4.75.7,1-.21,1-.21S239.82,237.56,238.68,237.23Z"/><path class="cls-24" d="M236.87,234.54s-.5-.1-.3,1,.63.8.63.8.75.15.54-1S236.87,234.54,236.87,234.54Z"/><path class="cls-24" d="M241.11,234.69s-.06-.76-1.13-.24-.51,1-.51,1,0,.51,1,0S241.11,234.69,241.11,234.69Z"/><path class="cls-24" d="M243.1,236.12s-.32-.41-.86.56,0,1,0,1,.49.6,1.07-.43S243.1,236.12,243.1,236.12Z"/><path class="cls-24" d="M243.2,232.43c-.43-1.1-1-.59-1-.59s-.51,0-.11,1,.77.68.77.68S243.63,233.54,243.2,232.43Z"/><path class="cls-24" d="M217.07,286.31c-1.14-.31-1.06.44-1.06.44s-.33.41.74.71,1-.21,1-.21S218.21,286.64,217.07,286.31Z"/><path class="cls-24" d="M215.27,283.62s-.5-.11-.31,1,.64.81.64.81.74.15.53-1S215.27,283.62,215.27,283.62Z"/><path class="cls-24" d="M219.5,283.77s-.06-.77-1.12-.24-.51,1-.51,1,0,.51,1,0S219.5,283.77,219.5,283.77Z"/><path class="cls-24" d="M221.49,285.2s-.31-.41-.86.56,0,1,0,1,.48.6,1.06-.43S221.49,285.2,221.49,285.2Z"/><path class="cls-24" d="M221.59,281.51c-.43-1.1-1-.59-1-.59s-.52,0-.12,1,.78.68.78.68S222,282.62,221.59,281.51Z"/><path class="cls-24" d="M181.94,341.05c-1.14-.32-1.06.44-1.06.44s-.32.41.74.71,1-.21,1-.21S183.09,341.37,181.94,341.05Z"/><path class="cls-24" d="M180.14,338.36s-.5-.11-.3,1,.63.81.63.81.75.14.54-1S180.14,338.36,180.14,338.36Z"/><path class="cls-24" d="M184.37,338.51s-.06-.77-1.12-.24-.51,1-.51,1,0,.51,1,0S184.37,338.51,184.37,338.51Z"/><path class="cls-24" d="M186.37,339.93s-.32-.4-.86.56,0,1,0,1,.49.6,1.07-.44S186.37,339.93,186.37,339.93Z"/><path class="cls-24" d="M186.46,336.24c-.43-1.1-1-.58-1-.58s-.51,0-.11,1,.77.68.77.68S186.9,337.35,186.46,336.24Z"/><path class="cls-24" d="M245.69,377.8c-1.14-.32-1.06.44-1.06.44s-.32.41.74.71,1-.21,1-.21S246.84,378.12,245.69,377.8Z"/><path class="cls-24" d="M243.89,375.11s-.5-.11-.3,1,.63.81.63.81.75.14.54-1S243.89,375.11,243.89,375.11Z"/><path class="cls-24" d="M248.12,375.26s-.06-.77-1.12-.24-.51,1-.51,1,0,.51,1,0S248.12,375.26,248.12,375.26Z"/><path class="cls-24" d="M250.12,376.68s-.32-.4-.86.56,0,1,0,1,.49.6,1.07-.44S250.12,376.68,250.12,376.68Z"/><path class="cls-24" d="M250.21,373c-.43-1.1-1-.58-1-.58s-.51,0-.11,1,.77.68.77.68S250.65,374.1,250.21,373Z"/><path class="cls-24" d="M219.93,420.23c-1.14-.31-1.07.45-1.07.45s-.32.4.75.7,1-.21,1-.21S221.07,420.56,219.93,420.23Z"/><path class="cls-24" d="M218.12,417.54s-.5-.1-.3,1,.63.8.63.8.75.15.54-1S218.12,417.54,218.12,417.54Z"/><path class="cls-24" d="M222.36,417.69s-.06-.76-1.13-.24-.51,1-.51,1,0,.51,1,0S222.36,417.69,222.36,417.69Z"/><path class="cls-24" d="M224.35,419.12s-.32-.41-.86.56,0,1,0,1,.49.6,1.07-.43S224.35,419.12,224.35,419.12Z"/><path class="cls-24" d="M224.45,415.43c-.43-1.1-1-.59-1-.59s-.51,0-.11,1,.77.68.77.68S224.88,416.54,224.45,415.43Z"/><path class="cls-24" d="M324.68,360.23c-1.14-.31-1.07.45-1.07.45s-.32.4.75.7,1-.21,1-.21S325.82,360.56,324.68,360.23Z"/><path class="cls-24" d="M322.87,357.54s-.5-.1-.3,1,.63.8.63.8.75.15.54-1S322.87,357.54,322.87,357.54Z"/><path class="cls-24" d="M327.11,357.69s-.06-.76-1.13-.24-.51,1-.51,1,0,.51,1,0S327.11,357.69,327.11,357.69Z"/><path class="cls-24" d="M329.1,359.12s-.32-.41-.86.56,0,1,0,1,.49.6,1.07-.43S329.1,359.12,329.1,359.12Z"/><path class="cls-24" d="M329.2,355.43c-.43-1.1-1-.59-1-.59s-.51,0-.11,1,.77.68.77.68S329.63,356.54,329.2,355.43Z"/><path class="cls-23" d="M246,241.77s2,13.17,1.83,23-3,13.67-.33,14.17,2-1.84,1.17-16.5S246,241.77,246,241.77Z"/><path class="cls-23" d="M306,326.1c-13.5-5.66-19-4.5-19-4.5s13.83,1.67,24,8.34,9.5,10,11.33,8.5S319.5,331.77,306,326.1Z"/><path class="cls-23" d="M346.83,418.1c-4.16-8.16-8.5-9-8.5-9a30.1,30.1,0,0,1,7.5,10.67c3.17,7.17,1,10.17,3.17,10.17S351,426.27,346.83,418.1Z"/><path class="cls-20" d="M98.3,124.29c3.08-3.18,9.46-9.7,11.52-11.73q.27,1,.54,2c-1,1-3.14,3.23-6.84,7.08-5.2,5.4-8.69,7.83-7.41,8.79s1.65-1.68,6.15-6.14c3.59-3.57,6.77-7.52,8.25-9.17q.7,2.57,1.47,5.28a69.13,69.13,0,0,0-10.76,9c-6,6-8.24,10.49-7,11.2s2.37-3.44,6.11-8.3c3.08-4,9.62-9.51,11.82-11.32.19.67.38,1.35.58,2a77.44,77.44,0,0,0-9.32,8.15c-4,4.23-4.3,5.4-3.43,5.85s9.59-10.73,12.91-13.39c.12.39.23.79.34,1.19a50.17,50.17,0,0,0-7.24,7.09c-4.71,5.52-5.67,8-4.48,8.62s1.31-1.31,4.5-5.91a101.39,101.39,0,0,1,7.41-9.13l.63,2.22c-.55.47-1.36,1.21-2.56,2.42-3.66,3.65-11.36,14.71-12.69,19.18s0,6.06.82,6.16.94-6.88,4.74-14.47a46.18,46.18,0,0,1,9.89-12.57l.33,1.15a28.17,28.17,0,0,0-4.88,5.28c-4.57,5.87-8.34,16.31-8.73,22.45s1.86,6.42,2.71,6-1.68-9.72,1.58-18.67a33.58,33.58,0,0,1,9.67-13.88l.3,1.07c-3.3,3.49-8.83,12.67-9.91,16.52-1.14,4.09.1,5.39,1,5.34s.2-2.47,2.53-9a51.39,51.39,0,0,1,6.55-12.14l.54,1.87a39.7,39.7,0,0,0-3.47,6c-3.5,7-5.23,15.82-4.83,21s2,5.29,2.47,4.9-1.16-6.87.17-15.83a35.06,35.06,0,0,1,6-15l.06.23c.28,1,.55,1.89.81,2.8-1.33,1.52-3.7,5-4.92,12-1.75,9.94-.68,16.12.15,19.59s1.83,4.37,2.39,3.84-2-6.23-1.52-17a46,46,0,0,1,4.17-17.44q.78,2.69,1.45,5.07c-.79.83-1.93,2.8-2.81,7.41-1.53,7.94-.38,14,.66,19.31s2.29,5.07,2.81,4.79-1.41-6.91-2.24-15.81a23.76,23.76,0,0,1,2.32-13.06q.94,3.34,1.7,6.06a24.32,24.32,0,0,0-1.28,10c.46,3.05,1.29,3.4,1.62,3.11s-1-3.86-.85-7.62a13.65,13.65,0,0,1,.82-4.38c2.92,10.48,3.77,13.43,5,12.9,1-.47-.39-5.67-2.49-12.55a24.5,24.5,0,0,1,2.15,3.07,38.82,38.82,0,0,1,3,6.07c1.75,0,.89-2.2-2.18-6.67a20.89,20.89,0,0,0-3.4-4c-.63-2.07-1.32-4.26-2-6.5,1.58,1.16,4.47,3.9,7.7,10,4.86,9.1,6.16,14.48,6.16,14.48,3.64.08-.1-8.52-5.88-17.09-4-5.89-7.08-8.46-8.64-9.5-.46-1.5-.92-3-1.35-4.52-.12-.4-.24-.82-.37-1.27a59.55,59.55,0,0,1,9.08,8.81,47,47,0,0,1,8.21,14.09c3.76-.32,0-7-7.42-15.05-5.3-5.76-8.63-7.89-10.1-8.64-.26-.94-.56-2-.87-3.05,1.92.83,6.27,3.7,12.45,10.63,7.92,8.87,10,15.47,10,15.47,2.73-.12,2.52-2-.58-6.56s-6.68-7.58-13-13.69a36.75,36.75,0,0,0-9.08-6.83l-.47-1.67a51.43,51.43,0,0,1,7.88,5,60.83,60.83,0,0,1,10.23,10.1c3.21-.52,0-4.7-8.65-10.46-5.2-3.47-8.14-4.84-9.66-5.39-.12-.42-.24-.85-.37-1.28,1.8.44,5.55,2,11.57,6.19,8.28,5.75,11.31,10.12,11.31,10.12,3.33-.55-1-5.49-10.56-11.19-6.81-4.06-10.83-5.57-12.59-6.11-.13-.46-.27-.92-.4-1.39,1.52.38,4.75,1.46,10.88,4.57,9.53,4.82,11.44,8.39,11.44,8.39,4.06-1.8-5.16-7.08-12.88-10.12-5.47-2.15-8.4-3.18-9.65-3.59-.22-.79-.45-1.59-.68-2.4a46.09,46.09,0,0,1,7.33,2.13,42.49,42.49,0,0,1,10.4,5.28c3.34-1.76-4.51-4.93-10-6.23-3.73-.88-6.51-1.43-7.9-1.68l-.33-1.19c3.36.5,13.12,2.9,13.12,2.9,1.62-1.49-2.33-2-6.3-2.57-2.78-.4-5.47-.7-7-.84-.22-.75-.43-1.51-.64-2.27a45.2,45.2,0,0,1,8,1.34,81.54,81.54,0,0,1,12.55,4.08c2.84-1.6-6.3-4.29-11.88-4.83-4-.38-7.21-.8-8.82-1-.52-1.84-1-3.7-1.56-5.56.83.34,2.37,1.17,5.85,2.67a82.68,82.68,0,0,0,11,3.83c1.85-1.93-6.36-3.37-10.27-4.33a51.2,51.2,0,0,1-6.63-2.27c-.2-.71-.4-1.41-.59-2.11.94.32,2.56.93,5.38,2,5.21,1.91,14.24,4.54,14.24,4.54,2.41-1.55-5.6-3.51-11-4.64-3.88-.81-7.09-1.87-8.75-2.36l-1.41-5a28,28,0,0,1,6.68,1.7,33.83,33.83,0,0,1,10,5.77c3.18-1.71-3.38-4.83-8.76-6.42a33.4,33.4,0,0,0-8-1.45l-.67-2.41a46.14,46.14,0,0,1,10.07,2.83,34.78,34.78,0,0,1,10.09,5.74c2.66-1.12-5-5.32-10.28-6.76a92.77,92.77,0,0,0-10-2q-.31-1.16-.63-2.25a59.48,59.48,0,0,1,6,1.5A68,68,0,0,1,126,107.42c2.79-1.88-6.11-4.19-10.5-5.12-3-.65-5.48-1-6.83-1.18l-.81-2.91c1.13.25,3.3.79,7.4,1.94a52.7,52.7,0,0,1,13,5.52c3.1-1.8-6.88-5-11.95-6.08-3.76-.81-7-1.62-8.6-1.93-.34-1.21-.65-2.33-.94-3.35A46.52,46.52,0,0,1,112.66,96a76.9,76.9,0,0,1,11,4.9c2.61-1.72-4.58-3.77-10-5.26-3.75-1-6-1.51-7-1.69-.4-1.43-.73-2.63-1-3.55a27.73,27.73,0,0,1,6.7,1.7,33.8,33.8,0,0,1,10,5.77c3.17-1.71-3.39-4.83-8.76-6.42A33.34,33.34,0,0,0,105.55,90l-.45-1.63-1.54.47.4,1.59a28.17,28.17,0,0,0-8.07,6.85c-4.68,5.6-4.79,8.17-3.59,8.25s.5-1.87,3.11-6c2.16-3.45,7-7.27,8.68-8.56.25.94.57,2.18,1,3.68-.8.86-2.29,2.61-5,6-4.44,5.54-5.71,8-4.92,8.44s1.94-3.3,5.07-7.47c2.28-3,4.07-5.52,5-6.7.24.92.5,1.92.79,3A42.11,42.11,0,0,0,100,104.4c-4.53,5.59-6.56,7.67-5.53,8s1-1.62,5.05-6.37c3-3.56,5.5-6.31,6.57-7.47l.77,2.91c-1.37,1.17-4.57,4.39-8.72,9-5.3,5.86-5.81,7.52-4.86,8.07s2.11-3.3,4.51-6.45c2-2.65,7.35-8.26,9.19-10.13q.25.93.51,1.92A79.1,79.1,0,0,0,98.6,113c-5.44,6.38-6.57,9.74-5.37,10.09s.84-2.55,4.58-8a71.73,71.73,0,0,1,9.77-10.84c.22.81.44,1.65.67,2.52a28.34,28.34,0,0,0-7.86,6.74c-4.68,5.6-4.79,8.17-3.59,8.25s.5-1.87,3.11-6c2.09-3.33,6.62-7,8.5-8.42.39,1.47.81,3,1.25,4.61a99.66,99.66,0,0,0-10.41,9.88c-6.32,6.74-8.08,7.47-6.84,8.26S94.67,128,98.3,124.29Z"/></g></g></svg>